<svg xmlns="http://www.w3.org/2000/svg" xmlns:xlink="http://www.w3.org/1999/xlink" viewBox="0 0 229.786 234.648">
  <defs>
    <style>
      .cls-1 {
        fill: none;
        stroke: #1d1d1b;
        stroke-miterlimit: 10;
      }

      .cls-2 {
        clip-path: url(#clip-path);
      }

      .cls-3 {
        fill: #a25a35;
      }

      .cls-4 {
        fill: #efc8a4;
      }

      .cls-5, .cls-9 {
        fill: #b1836e;
      }

      .cls-5 {
        opacity: 0.4;
      }

      .cls-6 {
        fill: #c4917a;
        opacity: 0.2;
      }

      .cls-7 {
        fill: #d7836f;
      }

      .cls-8 {
        fill: #fff;
      }
    </style>
    <clipPath id="clip-path">
      <path id="Path_21" data-name="Path 21" class="cls-1" d="M229.286,178.945c0,30.471-25.608,55.2-57.228,55.2H57.728C26.129,234.211.5,209.479.5,178.945V55.808C.5,25.211,26.129.5,57.728.5h114.33c31.619,0,57.228,24.711,57.228,55.308Z" transform="translate(-0.5 -0.5)"/>
    </clipPath>
  </defs>
  <g id="GirlBun" transform="translate(0.5 0.5)">
    <g id="Layer_2" data-name="Layer 2" transform="translate(0 0)">
      <g id="Layer_1" data-name="Layer 1">
        <g id="Group_26" data-name="Group 26" class="cls-2">
          <path id="Path_8" data-name="Path 8" class="cls-3" d="M94.321,22.91c0,11.667-11.479,21.121-25.629,21.121S43,34.577,43,22.91,54.542,1.81,68.692,1.81,94.321,11.264,94.321,22.91Z" transform="translate(45.701 0.924)"/>
          <path id="Path_9" data-name="Path 9" class="cls-3" d="M35.216,80.986s-16.133-37.713,3.757-56.1c29.261-27.132,83.483-16.342,94.9,15.09,8.14,22.311-3.736,43.411-3.736,43.411S133.309,30.918,88.875,31.5,35.216,80.986,35.216,80.986Z" transform="translate(30.527 9.196)"/>
          <path id="Path_10" data-name="Path 10" class="cls-4" d="M122.9,78.052s-3.569,36.106,2.087,50.257c3.882,9.934,1.336,15.361,35.48,13.483,12.105-.668,15.11,4.32,15.778,25.713.584,19.285,1.169,25.3,1.169,25.3L12.31,188.417s1.774-27.988,9.809-37.818S59,162.057,70.623,125.408C75.987,108.44,74.8,62.42,74.8,62.42Z" transform="translate(12.338 66.812)"/>
          <path id="Path_11" data-name="Path 11" class="cls-5" d="M42,79.23c0,1.711,30.492,41.512,42.159,49.151s14.192,6.032,14.192,6.032-9.58.4-9.162-34.186S91.276,63.64,91.276,63.64Z" transform="translate(44.614 68.138)"/>
          <path id="Path_12" data-name="Path 12" class="cls-4" d="M136.961,72.433c-3.068.167-5.134,2.859-6.261,5.176A167.988,167.988,0,0,0,127.8,38.5c-9.183-28.134-71.691-28.134-83.775-8.849-4.174,6.637-7.785,27.8-7.764,45.248A7.43,7.43,0,0,0,30.6,71.411c-5.2,0-.167,13.316,2.755,22.687a26.193,26.193,0,0,0,6.261,11.375c1.211,1.064,2.3,1.4,3.026.918,8.933,22.958,24.648,46.124,39.112,45.561,16.822-.647,34.646-21.893,44.163-49.526-.167,2.233-.125,3.882.313,4.3,1.816,1.878,6.261-2.88,8.87-12.084S142.011,72.2,136.961,72.433Z" transform="translate(29.776 16.497)"/>
          <path id="Path_13" data-name="Path 13" class="cls-6" d="M108.677,72.439c-3.068.167-5.134,2.859-6.261,5.176A167.988,167.988,0,0,0,99.536,38.5C94.527,23.143,73.614,16.172,53.62,16.13V151.957c16.7-.814,34.541-22,44.016-49.526-.167,2.233-.125,3.882.313,4.3,1.816,1.878,6.366-2.88,8.87-12.084S113.707,72.21,108.677,72.439Z" transform="translate(57.246 16.491)"/>
          <path id="Path_14" data-name="Path 14" class="cls-7" d="M61.372,100.695a74.237,74.237,0,0,0,36.253,9.058A72.109,72.109,0,0,0,132.646,98.9s45.415.9,48.754,8.348c5.155,11.667,5.009,47.043,5.009,47.043l-173.6-1.211s-3.945-42.722,3.611-46.959S61.372,100.695,61.372,100.695Z" transform="translate(11.759 106.468)"/>
          <path id="Path_15" data-name="Path 15" class="cls-8" d="M41.8,94.27S43.68,99.7,55.555,108.149s17.594,6.637,17.594,6.637l-16.968,17.49L35.54,105.728Z" transform="translate(37.591 101.435)"/>
          <path id="Path_16" data-name="Path 16" class="cls-8" d="M53.56,113.84l18.032,16.279,17.615-26.235L84.72,95.14S65.456,110.814,53.56,113.84Z" transform="translate(57.18 102.381)"/>
          <path id="Path_17" data-name="Path 17" class="cls-3" d="M34.2,25.073c-9.371,10.853,4.988,43.516,4.988,43.516l16.217.23,1.336-9.183,4.9,8.954L128.6,69.695s6.867-33.164-10.206-46.458C89.553.759,34.2,25.073,34.2,25.073Z" transform="translate(32.687 13.851)"/>
          <path id="Path_18" data-name="Path 18" class="cls-5" d="M23.27,147.431l2.275-40.3,3.548,41.115Z" transform="translate(24.253 115.415)"/>
          <path id="Path_19" data-name="Path 19" class="cls-9" d="M80.37,154.358l4.07-46.938,3.444,46.145Z" transform="translate(86.325 115.73)"/>
          <path id="Path_20" data-name="Path 20" class="cls-8" d="M52.92,104.24l1.67,40.2,5.823.814L56.238,104.24Z" transform="translate(56.485 112.273)"/>
        </g>
        <path id="Path_22" data-name="Path 22" class="cls-1" d="M229.286,178.945c0,30.471-25.608,55.2-57.228,55.2H57.728C26.129,234.211.5,209.479.5,178.945V55.808C.5,25.211,26.129.5,57.728.5h114.33c31.619,0,57.228,24.711,57.228,55.308Z" transform="translate(-0.5 -0.5)"/>
      </g>
    </g>
  </g>
</svg>
