<svg xmlns="http://www.w3.org/2000/svg" xmlns:xlink="http://www.w3.org/1999/xlink" viewBox="0 0 229.786 234.648">
  <defs>
    <style>
      .cls-1 {
        fill: none;
        stroke: #1d1d1b;
        stroke-miterlimit: 10;
      }

      .cls-2 {
        clip-path: url(#clip-path);
      }

      .cls-3 {
        fill: #efc8a4;
      }

      .cls-4 {
        fill: #b1836e;
        opacity: 0.4;
      }

      .cls-5 {
        fill: #d4ab8b;
      }

      .cls-6 {
        fill: #ca7d34;
      }

      .cls-7 {
        fill: #c4917a;
      }

      .cls-10, .cls-7 {
        opacity: 0.2;
      }

      .cls-8 {
        fill: #5e5049;
      }

      .cls-9 {
        fill: #7c6248;
      }

      .cls-10 {
        fill: #a47966;
      }
    </style>
    <clipPath id="clip-path">
      <path id="Path_37" data-name="Path 37" class="cls-1" d="M229.286,178.945c0,30.471-25.608,55.2-57.228,55.2H57.728C26.129,234.211.5,209.479.5,178.945V55.808C.5,25.211,26.129.5,57.728.5h114.33c31.619,0,57.228,24.711,57.228,55.308Z" transform="translate(-0.5 -0.5)"/>
    </clipPath>
  </defs>
  <g id="GlassesBeard" transform="translate(0.5 0.5)">
    <g id="Layer_2" data-name="Layer 2" transform="translate(0 0)">
      <g id="Layer_1" data-name="Layer 1">
        <g id="Group_27" data-name="Group 27" class="cls-2">
          <path id="Path_23" data-name="Path 23" class="cls-3" d="M61.911,66.946s1.691,25.921,0,36.273S57.737,112.173,39.558,122,14.91,173.575,14.91,173.575l179.217-6.428s-13.691-31.828-22.666-40.093-25.045-6.553-29.219-10.832-8.035-62.612-8.035-62.612Z" transform="translate(15.165 57.235)"/>
          <path id="Path_24" data-name="Path 24" class="cls-4" d="M38.21,73.029,79.743,117.15a70.146,70.146,0,0,0,20.871-2.838c12.961-3.4,14.923-6.428,14.923-6.428s-5.489-25.045-5.092-40.907S38.21,68.5,38.21,68.5Z" transform="translate(40.494 64.509)"/>
          <path id="Path_25" data-name="Path 25" class="cls-5" d="M87.731,35.953c2.692,4.654.376,20.224-4.028,21.476a10.31,10.31,0,0,1-6.992,0L73.33,34.471S85.164,31.383,87.731,35.953Z" transform="translate(78.672 35.32)"/>
          <path id="Path_26" data-name="Path 26" class="cls-3" d="M29.264,36.425c-2.985,4.654-.417,20.224,4.508,21.5a12.815,12.815,0,0,0,7.764,0l3.778-23.083S32.185,31.854,29.264,36.425Z" transform="translate(29.383 35.788)"/>
          <path id="Path_27" data-name="Path 27" class="cls-3" d="M122.452,48.513s.877,9.642,1.127,15.194,4.028,36.315,2.63,42.681-28.092,32.6-31.891,36.67-23.814,1.023-26.861-.71S35.692,120.163,34.21,113.922s-1.482-46.834-1.586-54.514.835-37.317,8.62-43.829S79.52,4.163,103.376,13.242C116.587,18.292,122.681,40.833,122.452,48.513Z" transform="translate(34.413 7.942)"/>
          <path id="Path_28" data-name="Path 28" class="cls-6" d="M72.442,80.527s12.669,18.116,46.751,15.59S153.818,79.65,153.818,79.65s38.319,10.143,49.672,23.208,24.461,45.29,24.461,45.29L1.92,150.047s10.6-34.959,22.5-48.024S72.442,80.527,72.442,80.527Z" transform="translate(1.044 85.542)"/>
          <path id="Path_29" data-name="Path 29" class="cls-7" d="M97.12,48.883c.23-7.68-5.865-30.221-19.1-35.272A80.039,80.039,0,0,0,55.65,8.79V145.18c5.739.417,11.479.146,13.336-1.837,3.8-4.174,30.492-30.3,31.891-36.67S98.5,69.545,98.247,63.993,97.12,48.883,97.12,48.883Z" transform="translate(59.452 8.512)"/>
          <path id="Path_30" data-name="Path 30" class="cls-8" d="M103.625,30.27C86.615,31.4,87.971,34.84,80.5,35.32c-5.656.376-9.267-5.572-25.254-5.719s-22.04,4.425-22.04,4.425l-.4,5.927s.605.355,1.92,3.214C36.65,47.342,37.944,60.2,56,60.2c15.277,0,17.114-7.1,20.036-13.879s6.616-3.381,8.787,1.294S87.2,59.8,105.5,60.136c14.422.209,17.177-8.348,20.558-14.964a27.132,27.132,0,0,1,2.233-3.965l-.188-6.261S120.593,29.143,103.625,30.27ZM71.671,48.406c-3.423,7.785-6.261,8.849-16.008,9.308S37.214,51.913,40.2,36.7c.647-3.318,14.61-4.3,24.21-3.089C74.948,34.882,75.115,40.622,71.671,48.406Zm45.018,5.552c-4.8,4.174-19.368,4.487-24.4-.877S85.655,39.265,88.18,36.7c3.569-3.611,19.18-5.009,28.259-2.922C125.038,35.759,121.386,49.867,116.69,53.958Z" transform="translate(34.623 31.132)"/>
          <path id="Path_31" data-name="Path 31" class="cls-9" d="M32.82,44.94s.5,32.162,1.44,34.353c3.235,7.7,23.125,19.326,34.416,25.775a100.679,100.679,0,0,0,15.507,6.637l4.633,1.419.271-4.821L90.3,110.85s27.466-20.266,32.642-28.969,2.087-36.816,2.087-36.816-7.3,11.312-15.277,21.476c-2.609,3.3-5.259,6.491-7.764,9.121a24.774,24.774,0,0,1-8.348,6.553c-9.246,2.838-6.679-5.113-6.679-5.113H74.937s1.565,6.261-2.943,6.95c-3.131.522-7.952-2.692-14.276-8.1a186.376,186.376,0,0,1-12.71-14.192C40.313,55.981,32.82,44.94,32.82,44.94Z" transform="translate(34.634 47.81)"/>
          <path id="Path_32" data-name="Path 32" class="cls-9" d="M80.572,48.783s-6.616-3.256-18.387,2.838S45.7,55.8,41.314,52.477c-3.965-3.068-7.2-5.677-7.2-5.677s-5.155,5.259,8.1,16.175S74,67.149,77.525,60.429a22.749,22.749,0,0,0,3.047-11.646Z" transform="translate(34.968 49.832)"/>
          <path id="Path_33" data-name="Path 33" class="cls-9" d="M58.282,18.465S52.688,25,45.613,41.423a83.483,83.483,0,0,0-6.261,33.226S27,52.484,26.7,41.423c-.5-21.476,23.584-24.085,23.584-24.085S45.509,9.949,46.114,3.98c0,0,6.971,7.952,11.082,10.435C54.17,2.29,64.167-.924,83.681,1.706s31.724,11.98,47.606,8.244c-7.347,7.1-9.413,5.677-9.413,5.677s16.008,1.336,19.639,14.15-8.348,35-8.745,38.11l-.292,3.131a59.961,59.961,0,0,1-19.431-15.9c2.087,7.1,2.943,12.522,10.895,16.7C109,73.605,62.685,50,58.282,18.465Z" transform="translate(27.977 -0.119)"/>
          <path id="Path_34" data-name="Path 34" class="cls-10" d="M85.326,66.434c-2.609,3.3-5.259,6.491-7.764,9.121a24.774,24.774,0,0,1-8.348,6.553c-9.246,2.838-6.679-5.113-6.679-5.113h-7.3v33.059c1.732.668,3.318,1.231,4.487,1.586l4.633,1.419.271-4.821,1.211,2.546S93.4,90.519,98.579,81.816,100.666,45,100.666,45,93.3,56.27,85.326,66.434Z" transform="translate(58.996 47.875)"/>
          <path id="Path_35" data-name="Path 35" class="cls-9" d="M56.054,48.031a29.866,29.866,0,0,1,15.9,1.273c8.348,3.131,13.107,7.639,19.723,6.094a8.181,8.181,0,0,0,6.783-7.367s2.212,4.4-2.651,12.648S72.25,68.589,65.2,64.853,54.447,51.579,56.054,48.031Z" transform="translate(59.487 50.583)"/>
          <path id="Path_36" data-name="Path 36" class="cls-10" d="M56.214,48.031a29.866,29.866,0,0,1,15.9,1.273C80.466,52.435,85.2,56.943,91.84,55.4A8.181,8.181,0,0,0,98.6,48.031s2.212,4.4-2.651,12.648-23.542,7.91-30.617,4.174S54.5,51.579,56.214,48.031Z" transform="translate(59.619 50.583)"/>
        </g>
        <path id="Path_38" data-name="Path 38" class="cls-1" d="M229.286,178.945c0,30.471-25.608,55.2-57.228,55.2H57.728C26.129,234.211.5,209.479.5,178.945V55.808C.5,25.211,26.129.5,57.728.5h114.33c31.619,0,57.228,24.711,57.228,55.308Z" transform="translate(-0.5 -0.5)"/>
      </g>
    </g>
  </g>
</svg>
