<svg xmlns="http://www.w3.org/2000/svg" xmlns:xlink="http://www.w3.org/1999/xlink" viewBox="0 0 229.786 234.669">
  <defs>
    <style>
      .cls-1 {
        fill: none;
        stroke: #1d1d1b;
        stroke-miterlimit: 10;
      }

      .cls-2 {
        clip-path: url(#clip-path);
      }

      .cls-3 {
        fill: #efc8a4;
      }

      .cls-4 {
        fill: #73aaaf;
      }

      .cls-5 {
        fill: #b3b5b8;
      }

      .cls-6 {
        fill: #b1836e;
        opacity: 0.4;
      }

      .cls-7 {
        fill: #d4ab8b;
      }

      .cls-8 {
        fill: #7c6248;
      }

      .cls-9 {
        fill: #6f4f3b;
      }

      .cls-10 {
        fill: #c4917a;
        opacity: 0.2;
      }

      .cls-11 {
        fill: #427678;
      }
    </style>
    <clipPath id="clip-path">
      <path id="Path_53" data-name="Path 53" class="cls-1" d="M229.286,178.945c0,30.492-25.608,55.224-57.228,55.224H57.728C26.129,234.211.5,209.479.5,178.945V55.808C.5,25.211,26.129.5,57.728.5h114.33c31.619,0,57.228,24.711,57.228,55.308Z" transform="translate(-0.5 -0.5)"/>
    </clipPath>
  </defs>
  <g id="Layer_2" data-name="Layer 2" transform="translate(0.5 0.5)">
    <g id="Layer_1" data-name="Layer 1">
      <g id="Group_28" data-name="Group 28" class="cls-2">
        <path id="Path_39" data-name="Path 39" class="cls-3" d="M216.686,160.054c-.4-7.409-12.752-21.789-25.045-24.586-26.088-5.906-42.347-13.524-43.536-21.33S147.145,60,147.145,60L79.816,61.586s2.379,38.36-8.766,51.718S17.976,137.389,15.2,147.782C10.191,166.42,4.18,160.43,4.18,160.43Z" transform="translate(3.5 64.181)"/>
        <path id="Path_40" data-name="Path 40" class="cls-4" d="M221.976,139.623s3.068-29.115-5.844-32.684-52.386-16.112-57.186-16.217-3.611,1.231-21.1,14.61c-18.095,13.816-40.448,11.479-51.634,2.713C78.97,102.369,69.974,88.01,69.974,88.01S15.71,103,8.844,106.564.955,137.87,1.289,139.123,221.976,139.623,221.976,139.623Z" transform="translate(0.297 94.63)"/>
        <path id="Path_41" data-name="Path 41" class="cls-5" d="M33.42,89.07l15.695,40.719,35.313-12.063,30.617,10.54,15.006-37.087L79.106,113.489Z" transform="translate(35.287 95.782)"/>
        <path id="Path_42" data-name="Path 42" class="cls-6" d="M42.28,75.4s29.47,60.191,29.783,61.047,34.562-30.2,34.562-30.2L104.788,67.26Z" transform="translate(44.918 72.073)"/>
        <path id="Path_43" data-name="Path 43" class="cls-7" d="M94.516,43.979c-1.774-1.628-11.625-1.231-13.921-.313s-6.261,23.6-6.261,23.6-.459,7.931,5.426,8.348c3.005.167,10.936-2.567,13.545-8.348C97.96,57,97.856,53.413,97.835,51.3A16.7,16.7,0,0,0,94.516,43.979Z" transform="translate(79.755 45.557)"/>
        <path id="Path_44" data-name="Path 44" class="cls-3" d="M122.98,59.729c-.146,2.734,9.183,14.61,7.409,22.958s-5.969,23.626-7.576,28.322c-3.3,9.559.668,7.1-12.105,20.453-4.884,5.072-14.276,15.737-20.433,16.884s-18.032,2.484-22.081.793-21.6-17.824-25.045-22.958c-2.087-3.068-1.586-17.719-6.261-32.12-4.4-13.9-2.88-15.632-3.172-20.871s3.548-17.135,5.176-28.426S27.642,26.232,45.737,20.638s51.53-11.062,63.99-1.336S122.98,59.729,122.98,59.729Z" transform="translate(35.576 14.132)"/>
        <path id="Path_45" data-name="Path 45" class="cls-3" d="M41.616,44.267a21.059,21.059,0,0,0-10.811.417c-2.442,1.273-3.882,3.84-4.174,8.64-.1,2.525,5.719,20.182,11.75,22.728,3.214,1.357,10.811,1.67,13.378-1.983a7.367,7.367,0,0,0,1.273-6.846L47.856,45.937Z" transform="translate(27.905 46.521)"/>
        <path id="Path_46" data-name="Path 46" class="cls-8" d="M61.791,38.248c-.564-1.377-8.745-3.444-14.9-2.212s-8.682,4.508-9.183,5.969a52.7,52.7,0,0,0-1.357,6.261,14.944,14.944,0,0,1,6.95-7.1c4.842-2.338,4.842-2.713,9.726-3.444C59.141,36.787,61.791,38.248,61.791,38.248Z" transform="translate(38.472 37.721)"/>
        <path id="Path_47" data-name="Path 47" class="cls-9" d="M89.816,15.9S77,40.632,66.378,54.511,53.25,69.287,53.25,69.287,64.207,36.979,89.816,15.9Z" transform="translate(56.843 16.241)"/>
        <path id="Path_48" data-name="Path 48" class="cls-4" d="M94.535,83.8,56.55,118.466,82.033,135.81l21.873-40.865Z" transform="translate(60.431 90.054)"/>
        <path id="Path_49" data-name="Path 49" class="cls-4" d="M39.686,82.79,32.82,95.9l21.413,40.26,25.525-15.841Z" transform="translate(34.634 88.956)"/>
        <path id="Path_50" data-name="Path 50" class="cls-10" d="M54.92,14.437c12.877-1.106,25.233-.188,31.786,4.926,12.522,9.726,13.128,40.406,13.128,40.406-.125,2.734,9.2,14.61,7.409,22.958s-5.948,23.647-7.576,28.342c-3.277,9.559.689,7.1-12.105,20.432-4.884,5.092-14.255,15.757-20.412,16.884a106.443,106.443,0,0,1-12.23,1.5Z" transform="translate(58.659 14.198)"/>
        <path id="Path_51" data-name="Path 51" class="cls-11" d="M54.92,40.007c16.947.438,19.305,3.3,26.756,3.485,5.656.146,10.769-4.529,26.673-5.322s25.233,3.59,25.233,3.59l.835,3.694-5.03,4.988c-3.277,3.3-4.362,17.156-22.311,17.886-15.194.605-17.344-6.386-20.537-13.023s-6.741-3.089-8.7,1.649S76,69.184,57.8,70.186C43.462,71,40.582,62.443,37.1,55.827S31.67,47.9,31.67,47.9v-3.36S37.952,39.631,54.92,40.007Zm36,17.177c3.757,7.618,6.6,8.557,16.363,8.64s19.973-6.261,16.342-21.226c-.793-3.3-16.7-4.049-26.088-2.463-10.394,1.795-10.352,7.513-6.616,15.11ZM46.488,64.592c4.946,3.861,19.472,3.694,24.252-1.857s5.886-14,3.36-16.467c-3.694-3.444-19.305-4.174-28.259-1.774C37.368,46.831,41.542,60.71,46.488,64.592Z" transform="translate(33.384 40.346)"/>
        <path id="Path_52" data-name="Path 52" class="cls-9" d="M119.53,14.858A65.367,65.367,0,0,0,63.91,7.324c-32.2,9.955-43.14,28.05-31.577,63.009S43.269,95.962,43.269,95.962,71.987,76.072,80.147,67.62s7.827-9.934,7.827-9.934a34.834,34.834,0,0,1-4.383,12.961c-3.444,5.134-4.362,6.637-4.362,6.637a77.577,77.577,0,0,0,22.5-21.351,121.176,121.176,0,0,0,14.86-25.567s11.082,26.715,11.75,34.854,8.348,22.958,8.348,22.958,11.792-27.487,8.348-50.257S119.53,14.858,119.53,14.858Z" transform="translate(29.237 3.55)"/>
      </g>
      <path id="Path_54" data-name="Path 54" class="cls-1" d="M229.286,178.945c0,30.492-25.608,55.224-57.228,55.224H57.728C26.129,234.211.5,209.479.5,178.945V55.808C.5,25.211,26.129.5,57.728.5h114.33c31.619,0,57.228,24.711,57.228,55.308Z" transform="translate(-0.5 -0.5)"/>
    </g>
  </g>
</svg>
