<svg xmlns="http://www.w3.org/2000/svg" xmlns:xlink="http://www.w3.org/1999/xlink" viewBox="0 0 1183.28 1081.36"><defs><style>.cls-1{fill:url(#linear-gradient);}.cls-2{fill:#01b4f5;opacity:0.03;}.cls-11,.cls-12,.cls-2,.cls-23,.cls-24,.cls-25,.cls-26,.cls-27,.cls-28,.cls-29,.cls-30,.cls-34,.cls-9{isolation:isolate;}.cls-3{fill:#fff5ed;}.cls-4{fill:#f3fcff;}.cls-5{fill:#e7f2ff;}.cls-6{fill:#ffeef4;}.cls-7{fill:#e8f2fb;}.cls-8{fill:#a4b2ea;}.cls-12,.cls-9{fill:#212121;}.cls-9{opacity:0.05;}.cls-10,.cls-11,.cls-26,.cls-27,.cls-34{fill:#fff;}.cls-11,.cls-15,.cls-30{opacity:0.5;}.cls-12{opacity:0.04;}.cls-13,.cls-14,.cls-31,.cls-32,.cls-33{fill:none;stroke-linecap:round;stroke-linejoin:round;}.cls-13,.cls-14{stroke:#d3d5e6;}.cls-13{stroke-width:3px;}.cls-14{stroke-width:1.5px;}.cls-16{fill:#19d2ff;}.cls-17{fill:#ecf7ff;}.cls-18{fill:#b5dcff;}.cls-19{fill:url(#linear-gradient-2);}.cls-20{fill:url(#linear-gradient-3);}.cls-21{fill:url(#linear-gradient-4);}.cls-22{fill:#90ff8c;}.cls-23,.cls-24,.cls-25,.cls-28{fill:#004075;}.cls-23{opacity:0.3;}.cls-24{opacity:0.2;}.cls-25{opacity:0.15;}.cls-26{opacity:0.8;}.cls-27,.cls-29{opacity:0.65;}.cls-28{opacity:0.1;}.cls-29,.cls-30{fill:#fffd8c;}.cls-31{stroke:#454c7a;}.cls-31,.cls-32{stroke-width:4px;}.cls-32,.cls-33{stroke:#484d78;}.cls-33{stroke-width:2px;}.cls-34{opacity:0.75;}</style><linearGradient id="linear-gradient" x1="41.66" y1="1020.58" x2="42.3" y2="1020.54" gradientTransform="matrix(1664.96, 0, 0, -1381.92, -69290.43, 1410822.96)" gradientUnits="userSpaceOnUse"><stop offset="0" stop-color="#b18dd1"/><stop offset="0.49" stop-color="#63cddc"/><stop offset="1" stop-color="#5fa8df"/></linearGradient><linearGradient id="linear-gradient-2" x1="37.98" y1="1081.38" x2="38.98" y2="1081.38" gradientTransform="matrix(58.41, 0, 0, -18.5, -1613.86, 20461.91)" gradientUnits="userSpaceOnUse"><stop offset="0" stop-color="#19ff53"/><stop offset="0.14" stop-color="#18ff58"/><stop offset="0.32" stop-color="#15ff68"/><stop offset="0.51" stop-color="#11ff81"/><stop offset="0.72" stop-color="#0bffa4"/><stop offset="0.93" stop-color="#03ffd1"/><stop offset="1" stop-color="#00ffe1"/></linearGradient><linearGradient id="linear-gradient-3" x1="35.64" y1="1039.26" x2="35.64" y2="1040.3" gradientTransform="matrix(33.31, 0, 0, -57.16, -572.5, 60069.71)" gradientUnits="userSpaceOnUse"><stop offset="0" stop-color="#ffe061"/><stop offset="0.17" stop-color="#ffda61"/><stop offset="0.39" stop-color="#ffca61"/><stop offset="0.64" stop-color="#ffaf61"/><stop offset="0.91" stop-color="#ff8961"/><stop offset="1" stop-color="#ff7b61"/></linearGradient><linearGradient id="linear-gradient-4" x1="39.99" y1="1028.88" x2="39.94" y2="1027.89" gradientTransform="matrix(96.69, 0, 0, -133.12, -3250.2, 137420.48)" gradientUnits="userSpaceOnUse"><stop offset="0" stop-color="#0dff00"/><stop offset="1" stop-color="#00fff2"/></linearGradient></defs><title>LandingImg</title><g id="Layer_2" data-name="Layer 2"><g id="Layer_1-2" data-name="Layer 1"><g id="Group_31" data-name="Group 31"><path id="Union_3" data-name="Union 3" class="cls-1" d="M181.6,69a4.51,4.51,0,0,0-4.15,4.84A4.37,4.37,0,0,0,181.94,78h.36a4.51,4.51,0,0,0-.7-9ZM1183.28,773.3V0H458.4L382.71,66,255.88,68.23l-25.37.44a13.77,13.77,0,0,0,.26,27.53H231l119.5-2.09L322,119l-96.93,1.69a7.41,7.41,0,0,0,.26,14.82l79.32-1.38c-164.34,143.59-221.43,347.78-167,526.11l-67.75,1.18-59.48,1a10.59,10.59,0,1,0,.37,21.17l64.84-1.13,69-1.2c2,5.65,4.17,11.24,6.43,16.83L100,699a18.53,18.53,0,0,0-6,36,18.33,18.33,0,0,0,6.65,1.11l67.17-1.17C192.4,783,226.06,828.06,268.9,868a521.42,521.42,0,0,0,68.22,53.73H257.81A14.1,14.1,0,0,0,244,935.52a13.86,13.86,0,0,0,1.19,6,14.08,14.08,0,0,0,9.88,8.12,14.24,14.24,0,0,0,2.71.32H385q21.38,11.16,43.59,20.42H347.21a6.32,6.32,0,0,0,0,12.64H461.71c63.93,22.12,132.07,33.16,200.86,33.17a651.8,651.8,0,0,0,259.47-54l135-2.35,18.27-.32a12.18,12.18,0,0,0-.42-24.35l-101.33,1.77a622.62,622.62,0,0,0,110.22-76.8Z"/><path class="cls-2" d="M1183.28,0V857.94a741.78,741.78,0,0,1-98,82.79q-13.93,9.87-28.27,19A771.46,771.46,0,0,1,899.77,1037c-161.93,57.81-339.63,60.48-493.36,0a584.29,584.29,0,0,1-129.87-71q-11-8-21.44-16.38-5-4-9.88-8.12C176.39,883.64,125.88,812.72,94,734.94q-5.32-13-10-26.26-4.56-13-8.43-26.21Q72.54,672,69.88,661.39c-45.58-182,2.48-388.69,147.7-550.49l13.19-14.7,25.11-28L317.11,0Z"/><g id="chemistry-4"><g id="chemistry-4-2"><g id="bg"><g id="color"><path id="Shape" class="cls-3" d="M1010.65,491.64a12.66,12.66,0,0,1,3.72,8.7,12.3,12.3,0,0,1-12.18,12.43H629.12a12.17,12.17,0,0,1-8.7-3.73,12.65,12.65,0,0,1-3.73-8.7,12.32,12.32,0,0,1,12.19-12.43H1002A13.38,13.38,0,0,1,1010.65,491.64Z"/><path id="Shape-2" class="cls-3" d="M984.55,709.13h.74a34.1,34.1,0,0,1,34.06,34v.74H611.72v-.74a34.1,34.1,0,0,1,34-34Z"/><rect id="Rectangle-path" class="cls-3" x="964.66" y="513.02" width="19.88" height="196.36"/><path id="Shape-3" class="cls-3" d="M984.55,478.72v9.2H964.66v-9.2a9.95,9.95,0,0,1,19.89,0v0Z"/><path id="Shape-4" class="cls-4" d="M949,445.66a11.25,11.25,0,0,1-8,19.14H883.88a11.53,11.53,0,0,1-8-3.23,11.25,11.25,0,0,1,8-19.14h57.17A12,12,0,0,1,949,445.66Z"/><path id="Shape-5" class="cls-5" d="M939.81,591.56v64.63a27.34,27.34,0,1,1-54.68,0v-60.4C905.26,586.59,917.94,608.46,939.81,591.56Z"/><path id="Shape-6" class="cls-4" d="M939.81,513v78.54c-21.87,16.9-34.55-5-54.68,4V512.77h54.68Z"/><rect id="Rectangle-path-2" class="cls-4" x="885.13" y="464.8" width="54.68" height="23.11"/><path id="Shape-7" class="cls-4" d="M852.07,445.66a11.25,11.25,0,0,1-8,19.14H787a11.49,11.49,0,0,1-8-3.23,11.25,11.25,0,0,1,8-19.14h57.17A12,12,0,0,1,852.07,445.66Z"/><path id="Shape-8" class="cls-6" d="M842.87,559.5v91c0,20.88-12.18,33.06-27.34,33.06a27.28,27.28,0,0,1-27.34-27.19V555.52C809.82,572.17,822.74,550.55,842.87,559.5Z"/><path id="Shape-9" class="cls-4" d="M842.87,513v46.73c-20.13-9-32.81,12.67-54.68-4v-42.5h54.68Z"/><rect id="Rectangle-path-3" class="cls-4" x="788.19" y="464.8" width="54.68" height="23.11"/><path id="Shape-10" class="cls-4" d="M755.13,445.66a11.25,11.25,0,0,1-8,19.14H690a11.49,11.49,0,0,1-8-3.23,11.25,11.25,0,0,1,8-19.14h57.17A12,12,0,0,1,755.13,445.66Z"/><path id="Shape-11" class="cls-5" d="M745.94,588.83v67.35a27.34,27.34,0,1,1-54.68,0V587.34C714.12,570.93,726.55,605.48,745.94,588.83Z"/><path id="Shape-12" class="cls-4" d="M745.94,513v75.81c-19.39,16.65-31.82-17.9-54.68-1.49V512.77h54.68Z"/><rect id="Rectangle-path-4" class="cls-4" x="691.26" y="464.8" width="54.68" height="23.11"/><rect id="Rectangle-path-5" class="cls-3" x="646.52" y="513.02" width="19.88" height="196.36"/><path id="Shape-13" class="cls-3" d="M666.4,478.72v9.2H646.52v-9.2a9.94,9.94,0,1,1,19.88,0Z"/><path id="Shape-14" class="cls-4" d="M532.43,422.3v16.15a15,15,0,0,1-14.91,14.92H410.39a15,15,0,0,1-14.91-14.92V422.3a15,15,0,0,1,14.91-14.92H517.52A15,15,0,0,1,532.43,422.3Z"/><path id="Shape-15" class="cls-4" d="M514.54,504.82a129.42,129.42,0,0,1,69.59,72.08c-26.1-2.74-52.69,7.45-79,20.87h0C444,561,336.82,574.41,335.08,623.13a128.63,128.63,0,0,1,78.29-118.31Z"/><path id="Shape-16" class="cls-4" d="M514.54,453.61v51.2H413.13v-51.2h20.63l.74,6.72a19.91,19.91,0,0,0,19.89,17.39H473a19.9,19.9,0,0,0,19.88-17.4l.75-6.71Z"/><path id="Shape-17" class="cls-7" d="M483,383a17.34,17.34,0,0,1,17.15,19.38l-.5,5H428.29l-.5-5a17.19,17.19,0,0,1,14.86-19.24,15.91,15.91,0,0,1,2.29-.14Z"/><path id="Shape-18" class="cls-8" d="M493.91,453.37v.24H434l-.25-.24Z"/><path id="Shape-19" class="cls-7" d="M493.9,453.61l-.74,6.72a19.92,19.92,0,0,1-19.89,17.4H454.63a20.11,20.11,0,0,1-19.88-17.4l-.75-6.72Z"/><path id="Shape-20" class="cls-6" d="M334.83,623.13c2-48.47,109.12-62.14,170-25.35C440.22,631.08,378.08,685.51,334.83,623.13Z"/><path id="Shape-21" class="cls-6" d="M505.09,597.78h0c26.35-13.67,52.94-23.62,79-20.88a125.48,125.48,0,0,1,8.7,46.48,128.94,128.94,0,0,1-82.52,120.3H417.6a129.2,129.2,0,0,1-82.52-120.3v-.25C378.08,685.51,440.22,631.08,505.09,597.78Z"/><path id="Shape-22" class="cls-8" d="M565.49,704.9a1.59,1.59,0,0,1,1.49,1.49,1.43,1.43,0,0,1-1.37,1.49h-.12a1.59,1.59,0,0,1-1.49-1.49C563.75,705.4,564.49,704.9,565.49,704.9Z"/></g><g id="shadows"><rect id="Rectangle-path-6" class="cls-9" x="691.26" y="464.8" width="54.93" height="25.35"/><rect id="Rectangle-path-7" class="cls-9" x="690.26" y="512.77" width="43.5" height="12.43"/><path id="Shape-23" class="cls-9" d="M704.18,676.57a30.67,30.67,0,0,0,5,.5,24.51,24.51,0,0,0,24.61-24.4V513h12.43V659.17a24.49,24.49,0,0,1-24.4,24.6h-.21A25.72,25.72,0,0,1,704.18,676.57Z"/><path id="Shape-24" class="cls-10" d="M706.42,450.63h51.45l-6.46-7.45H710.15a4.59,4.59,0,0,1,1.74-.5H698a4.59,4.59,0,0,0-1.74.5H683.3l-4.47,7.45H691c-1,5.72,1.49,12.68,7.21,12.68l13.42-.25C707.41,463.31,705.43,456.6,706.42,450.63Z"/><rect id="Rectangle-path-8" class="cls-9" x="788.19" y="464.8" width="54.93" height="25.35"/><rect id="Rectangle-path-9" class="cls-9" x="787.2" y="512.77" width="43.5" height="12.43"/><path id="Shape-25" class="cls-9" d="M801.12,676.57a30.67,30.67,0,0,0,5,.5,24.5,24.5,0,0,0,24.6-24.4.74.74,0,0,0,0-.21V513h12.43V659.17a24.49,24.49,0,0,1-24.39,24.6h-.21A25.7,25.7,0,0,1,801.12,676.57Z"/><path id="Shape-26" class="cls-10" d="M803.35,450.63H854.8l-6.46-7.45H807.08a4.59,4.59,0,0,1,1.74-.5H794.9a4.7,4.7,0,0,0-1.74.5H780.24l-4.48,7.45h12.18c-1,5.72,1.49,12.68,7.21,12.68l13.42-.25C804.35,463.31,802.61,456.6,803.35,450.63Z"/><rect id="Rectangle-path-10" class="cls-9" x="885.13" y="464.8" width="54.93" height="25.35"/><rect id="Rectangle-path-11" class="cls-9" x="884.13" y="512.77" width="43.5" height="12.43"/><path id="Shape-27" class="cls-9" d="M898.05,676.57a30.78,30.78,0,0,0,5,.5,24.51,24.51,0,0,0,24.61-24.4V513h12.43V659.17a24.49,24.49,0,0,1-24.39,24.6h-.22A25.72,25.72,0,0,1,898.05,676.57Z"/><path id="Shape-28" class="cls-10" d="M900.29,450.63h51.45l-6.46-7.45H904a4.59,4.59,0,0,1,1.74-.5H891.84a4.59,4.59,0,0,0-1.74.5H877.17l-4.47,7.45h12.18c-1,5.72,1.49,12.68,7.21,12.68l13.42-.25C901.28,463.31,899.54,456.6,900.29,450.63Z"/><rect id="Rectangle-path-12" class="cls-9" x="964.66" y="513.02" width="19.88" height="12.43"/><rect id="Rectangle-path-13" class="cls-9" x="646.52" y="513.02" width="19.88" height="12.43"/><path id="Shape-29" class="cls-9" d="M1017.11,731.5c-5-13.67-16.16-20.63-32.56-22.37h-60.4a205.43,205.43,0,0,1-93.21,22.37H612v12.43h407.38V731.5Z"/><path id="Shape-30" class="cls-11" d="M620.42,722.8H782.23c7.2,0,14.66-6,14.66-13.42H643C634.09,711.86,626.14,715.84,620.42,722.8Z"/><path id="Shape-31" class="cls-11" d="M616.69,500.59h397.69c-.75-8.7-6-13.67-18.65-12.43H624.64Z"/><path id="Shape-32" class="cls-12" d="M514.54,453.37H413.87v17.9h49a33.57,33.57,0,0,1,33.55,33.55H514V471.27h.5Z"/><path id="Shape-33" class="cls-12" d="M496.14,504.82c85.5,39.76,107.13,173,13.92,238.86C631.6,704.9,611.72,509.54,496.14,504.82Z"/><path id="Shape-34" class="cls-11" d="M499.62,395.2c0-16.4-72.08-16.4-72.08,0h8.7a6.86,6.86,0,0,1,7,6.47l.5,6h17.15v-5.22a7,7,0,0,1,6.93-7h31.84Z"/><path id="Shape-35" class="cls-11" d="M532.43,420.31a12.84,12.84,0,0,0-12.74-12.93H408.4a12.83,12.83,0,0,0-12.92,12.75v.18h13.67a8.49,8.49,0,0,1,8.2,7c1.24,10.44,4.73,19.38,11.93,26.59h16.9V428.51a8.28,8.28,0,0,1,8.2-8.2Z"/></g><g id="lines"><path id="Shape-36" class="cls-13" d="M985.29,709.13H645.52a34,34,0,0,0-34,33.83v1H1019.1v-.74a33.74,33.74,0,0,0-33.42-34Z"/><path id="Shape-37" class="cls-13" d="M666.4,478.72v9.2H646.52v-9.2a9.94,9.94,0,1,1,19.88,0Z"/><rect id="Rectangle-path-14" class="cls-13" x="646.52" y="513.02" width="19.88" height="196.36"/><g id="_Group_" data-name="&lt;Group&gt;"><path id="Shape-38" class="cls-13" d="M964.66,513V709.13h19.89V513"/></g><path id="Shape-39" class="cls-13" d="M964.66,488.16V479a9.95,9.95,0,0,1,19.89,0v9.22"/><path id="Shape-40" class="cls-13" d="M788.19,488.16V464.8h54.68v23.36"/><path id="Shape-41" class="cls-13" d="M842.87,513v137.7c0,20.88-12.18,33.06-27.34,33.06a27.28,27.28,0,0,1-27.34-27.19V513"/><path id="Shape-42" class="cls-13" d="M691.26,488.16V464.8h54.68v23.36"/><path id="Shape-43" class="cls-13" d="M745.94,513V656.19a27.34,27.34,0,0,1-54.68,0V512.77"/><path id="Shape-44" class="cls-13" d="M885.13,488.16V464.8h54.68v23.36"/><path id="Shape-45" class="cls-13" d="M939.81,513V656.19a27.34,27.34,0,1,1-54.68,0V512.77"/><path id="Shape-46" class="cls-13" d="M747.18,442.43H690a11.13,11.13,0,0,0-11.18,11.09v.09h0a11.14,11.14,0,0,0,11.09,11.19h57.26a11.14,11.14,0,0,0,11.19-11.09v-.1h0a11.14,11.14,0,0,0-11.09-11.18Z"/><path id="Shape-47" class="cls-13" d="M844.12,442.43H787a11.14,11.14,0,0,0-11.19,11.09v.09h0a11.15,11.15,0,0,0,11.1,11.19h57.26a11.13,11.13,0,0,0,11.18-11.09v-.1h0a11.13,11.13,0,0,0-11.09-11.18Z"/><path id="Shape-48" class="cls-13" d="M941.05,442.43H883.88a11.13,11.13,0,0,0-11.18,11.09v.09h0a11.14,11.14,0,0,0,11.09,11.19h57.26a11.14,11.14,0,0,0,11.19-11.09v-.1h0a11.14,11.14,0,0,0-11.09-11.18Z"/><path id="Shape-49" class="cls-13" d="M727.05,640.77h.25"/><path id="Shape-50" class="cls-13" d="M824.48,635.56h.25"/><path id="Shape-51" class="cls-13" d="M897.55,655.19h.25"/><path id="Shape-52" class="cls-14" d="M713.63,603h.24"/><path id="Shape-53" class="cls-14" d="M897.55,611h.25"/><path id="Shape-54" class="cls-14" d="M830.94,573.91h.25"/><path id="Shape-55" class="cls-14" d="M475,640.77h.24"/><path id="Shape-56" class="cls-14" d="M448.17,605.23h.25"/><path id="Shape-57" class="cls-13" d="M656.21,500.59h.25"/><path id="Shape-58" class="cls-13" d="M974.36,500.59h.25"/><path id="Shape-59" class="cls-13" d="M885.13,595.79c20.13-8.95,32.81,12.67,54.68-4"/><path id="Shape-60" class="cls-13" d="M691.26,587.34c22.86-16.66,35.29,18.14,54.68,1.49"/><path id="Shape-61" class="cls-13" d="M842.87,559.5c-20.13-9-32.81,12.67-54.68-4"/><path id="Shape-62" class="cls-13" d="M1002,488.16H629.12a12.32,12.32,0,0,0-12.43,12.19v.24h0A12.31,12.31,0,0,0,628.88,513H1002a12.32,12.32,0,0,0,12.43-12.19v-.24h0A12.47,12.47,0,0,0,1002,488.16Z"/><path id="Shape-63" class="cls-8" d="M565.49,704.9a1.59,1.59,0,0,1,1.49,1.49,1.43,1.43,0,0,1-1.37,1.49h-.12a1.59,1.59,0,0,1-1.49-1.49C563.75,705.4,564.49,704.9,565.49,704.9Z"/><path id="Shape-64" class="cls-13" d="M410.39,453.37H517.52a15,15,0,0,0,14.91-14.92V422.3a15,15,0,0,0-14.91-14.92H410.39a15,15,0,0,0-14.91,14.92v16.15A15,15,0,0,0,410.39,453.37Z"/><path id="Shape-65" class="cls-13" d="M417.35,743.68a128.93,128.93,0,0,1-4.22-238.86"/><path id="Shape-66" class="cls-13" d="M514.53,504.82a128.93,128.93,0,0,1-4.22,238.86"/><rect id="Rectangle-path-15" class="cls-13" x="413.13" y="453.61" width="101.41" height="51.2"/><path id="Shape-67" class="cls-13" d="M433.76,453.37l1,6.95a19.9,19.9,0,0,0,19.88,17.4h18.65a20.09,20.09,0,0,0,19.88-17.4l.74-6.95"/><path id="Shape-68" class="cls-13" d="M428,407.38l-.5-5a17.19,17.19,0,0,1,14.86-19.24,16,16,0,0,1,2.29-.14H483a17.34,17.34,0,0,1,17.15,19.38l-.5,5"/><path id="Shape-69" class="cls-8" d="M547.34,704.9a1.6,1.6,0,0,1,1.5,1.49,1.44,1.44,0,0,1-1.38,1.49h-.12a1.6,1.6,0,0,1-1.49-1.49C545.6,705.4,546.35,704.9,547.34,704.9Z"/><circle id="Oval" class="cls-14" cx="547.34" cy="706.39" r="2.49"/><circle id="Oval-2" class="cls-14" cx="376.09" cy="614.18" r="2.49"/><circle id="Oval-3" class="cls-14" cx="404.68" cy="683.53" r="2.49"/><circle id="Oval-4" class="cls-14" cx="484.46" cy="653.7" r="2.49"/><path id="Shape-70" class="cls-13" d="M505.09,597.78h0c-64.62,33.3-127,87.73-170.26,25.35C336.57,574.66,444,561,505.09,597.78c26.35-13.67,52.94-23.62,79-20.88"/><circle id="Oval-5" class="cls-14" cx="554.3" cy="610.95" r="5.72"/><circle id="Oval-6" class="cls-14" cx="464.33" cy="699.93" r="10.69"/><circle id="Oval-7" class="cls-14" cx="380.81" cy="683.53" r="5.72"/><circle id="Oval-8" class="cls-14" cx="824.73" cy="587.09" r="5.72"/><circle id="Oval-9" class="cls-14" cx="918.19" cy="657.93" r="5.72"/><circle id="Oval-10" class="cls-14" cx="707.91" cy="627.35" r="5.72"/><path id="Shape-71" class="cls-14" d="M397.47,542.6l-11.93,12.18"/><path id="Shape-72" class="cls-14" d="M398.71,552.29l15.16-15.16"/><path id="Shape-73" class="cls-14" d="M503.35,504.82V492.39"/><path id="Shape-74" class="cls-14" d="M994.74,733.73h23.12"/></g><g id="top_lights" data-name="top lights" class="cls-15"><path id="Shape-75" class="cls-10" d="M717.85,525.2H703.19V647.49a7.2,7.2,0,0,0,7.2,7.2h0a7.2,7.2,0,0,0,7.21-7.2V525.2Z"/><path id="Shape-76" class="cls-10" d="M816.28,525.2H801.61V647.49a7.21,7.21,0,0,0,7.21,7.2h0a7.2,7.2,0,0,0,7.21-7.2V525.2Z"/><path id="Shape-77" class="cls-10" d="M913.21,525.2H898.55V647.49a7.2,7.2,0,0,0,7.21,7.2h0a7.21,7.21,0,0,0,7.21-7.2V525.2Z"/><ellipse id="Oval-11" class="cls-10" cx="397.48" cy="577.82" rx="60.4" ry="34.3" transform="translate(-303.06 611.09) rotate(-58.19)"/><circle id="Oval-12" class="cls-10" cx="459.51" cy="529.3" r="10.19"/></g></g><g id="main"><g id="color-2" data-name="color"><path id="Shape-78" class="cls-16" d="M816.28,376.81a15,15,0,0,1,14.91,14.91,14,14,0,0,1-4.47,10.44,14.88,14.88,0,0,1-10.44,4.48h-250a14.92,14.92,0,0,1,0-29.83Z"/><path id="Shape-79" class="cls-16" d="M802.86,693a50.91,50.91,0,0,1,50.95,50.88v.07H500.37a51,51,0,0,1,51-50.95Z"/><rect id="Rectangle-path-16" class="cls-16" x="773.03" y="406.89" width="29.83" height="286.08"/><path id="Shape-80" class="cls-16" d="M802.86,363.89v13.17H773V363.89A15,15,0,0,1,787.94,349C796.39,348.73,802.86,355.44,802.86,363.89Z"/><path id="Shape-81" class="cls-17" d="M679.08,315.17a19.69,19.69,0,0,1-14.17,33.56H563.75a19.54,19.54,0,0,1-19.64-19.41v-.23A20,20,0,0,1,564,309.21H665.16A19.81,19.81,0,0,1,679.08,315.17Z"/><path id="Shape-82" class="cls-18" d="M673.36,666.38a15.56,15.56,0,0,1,4.47,10.93,15.32,15.32,0,0,1-15.24,15.41H567a15.26,15.26,0,0,1-15.41-15.14v-.27a15.33,15.33,0,0,1,15.25-15.41h95.36C666.65,661.65,670.38,663.64,673.36,666.38Z"/><path id="Shape-83" class="cls-17" d="M662.92,406.89v48c-13.17-11.93-38.28-10.94-58.41-.75-10.69-4.22-22.87-7-38.28-3V406.89Z"/><rect id="Rectangle-path-17" class="cls-17" x="566.23" y="348.73" width="96.69" height="28.09"/><path id="Shape-84" class="cls-19" d="M662.92,454.86c-23.61,18.39-38.77,6.71-58.41-.75C624.64,443.92,649.75,442.93,662.92,454.86Z"/><path id="Shape-85" class="cls-20" d="M631.11,645a16.66,16.66,0,0,1-33.31,0c0-9.2,16.65-40.51,16.65-40.51S631.11,635.8,631.11,645Z"/><path id="Shape-86" class="cls-21" d="M604.51,454.11c19.39,7.45,34.55,19.14,58.41.74v78.79a48.35,48.35,0,0,1-96.69.45v-83C581.64,446.91,593.82,449.89,604.51,454.11Z"/><circle id="Oval-13" class="cls-22" cx="574.93" cy="275.9" r="8.7"/><circle id="Oval-14" class="cls-22" cx="607.74" cy="289.57" r="5.97"/><circle id="Oval-15" class="cls-22" cx="690.76" cy="258" r="5.97"/></g><g id="shadows-2" data-name="shadows"><rect id="Rectangle-path-18" class="cls-23" x="773.03" y="406.89" width="31.32" height="14.17"/><path id="Shape-87" class="cls-10" d="M605.26,322.63h80l-15.16-13.18H556l-11.93,13.18h21.38a6.3,6.3,0,0,1,6.21,6.21c0,7.71,3,14.42,9.45,19.89H601a42.16,42.16,0,0,1-1.74-21.13C599.54,324.62,602,322.63,605.26,322.63Z"/><rect id="Rectangle-path-19" class="cls-24" x="567.48" y="348.73" width="95.44" height="14.17"/><rect id="Rectangle-path-20" class="cls-24" x="567.48" y="405.4" width="95.44" height="15.66"/><path id="Shape-88" class="cls-25" d="M773,640.78c21.13-10.69,28.83-35.8,31.32-66.87V693H773Z"/><circle id="Oval-16" class="cls-26" cx="572.45" cy="273.66" r="2.73"/><circle id="Oval-17" class="cls-26" cx="606.25" cy="289.07" r="2.49"/><circle id="Oval-18" class="cls-26" cx="689.77" cy="258" r="2.49"/><path id="Shape-89" class="cls-27" d="M784.22,376.81V362.89c1.74-7.2,7.95-9.69,15.9-10.19L784.71,349l-10.19,7-3.23,15.66,1.24,6.46Z"/><path id="Shape-90" class="cls-27" d="M678.33,674.58a15.74,15.74,0,0,0-4.72-.75H572.45a10,10,0,0,0-9.94,9.94v5.72a14.26,14.26,0,0,0,.74,4.72,16,16,0,0,1-6.21-3.72,15.66,15.66,0,0,1-4.48-10.94,15.33,15.33,0,0,1,15.25-15.41h95.61a15.6,15.6,0,0,1,10.93,4.47A12.63,12.63,0,0,1,678.33,674.58Z"/><path id="Shape-91" class="cls-28" d="M707.66,743.92c61.64,0,60.4-38.52,60.4-51.45h40.76l26.6,11.44,14.92,20.88,3.48,19.88Z"/><path id="Shape-92" class="cls-27" d="M846.85,715.84a51.32,51.32,0,0,0-29.33-9.2H561a45.74,45.74,0,0,0-45.23,38.52H502.85a51,51,0,0,1,51-50.95H805.59a51.16,51.16,0,0,1,36,14.92A78.76,78.76,0,0,1,846.85,715.84Z"/><path id="Shape-93" class="cls-27" d="M830.45,387.5a13.13,13.13,0,0,0-4.48-.75H570.46a9.46,9.46,0,0,0-9.45,9.44h0v5.47a14.16,14.16,0,0,0,.75,4.47A15,15,0,0,1,566,376.81H816.28A14.72,14.72,0,0,1,830.45,387.5Z"/><path id="Shape-94" class="cls-29" d="M662.92,518.74a48.35,48.35,0,0,1-96.69.44v12a48.35,48.35,0,0,0,96.69.45V518.74Z"/><path id="Shape-95" class="cls-30" d="M654,661.65h-77.3a11.94,11.94,0,0,0,11.93,11.93H642A11.76,11.76,0,0,0,654,662,1.71,1.71,0,0,0,654,661.65Z"/></g><g id="lines-2" data-name="lines"><path id="Shape-96" class="cls-31" d="M1062.34,743.92H341.54"/><path id="Shape-97" class="cls-31" d="M306.75,743.92H274.43"/><path id="Shape-98" class="cls-32" d="M802.86,693H551.32a51,51,0,0,0-51,50.95H853.81A50.71,50.71,0,0,0,803.35,693Z"/><path id="Shape-99" class="cls-32" d="M566.23,376.81V348.73h96.69v28.08"/><path id="Shape-100" class="cls-32" d="M662.92,406.89v127a48.47,48.47,0,1,1-96.93,0v-127"/><path id="Shape-101" class="cls-32" d="M664.91,309.21H563.75a20,20,0,0,0-19.89,19.88h0A20,20,0,0,0,563.75,349H664.91a19.93,19.93,0,0,0,19.88-19.88h0A19.93,19.93,0,0,0,664.91,309.21Z"/><path id="Shape-102" class="cls-32" d="M773,376.81V363.64a14.92,14.92,0,0,1,29.83,0v13.17"/><path id="Shape-103" class="cls-32" d="M802.86,406.89V693H773V406.89"/><path id="Shape-104" class="cls-32" d="M551.32,392h0a15,15,0,0,1,14.91-14.91h250A15,15,0,0,1,831.19,392h0a15,15,0,0,1-14.91,14.92h-250a14.81,14.81,0,0,1-14.91-14.69Z"/><path id="Shape-105" class="cls-32" d="M566.23,451.13c43.75-11.68,59.9,32.31,96.69,3.73-13.17-11.93-38.28-10.94-58.41-.75"/><circle id="Oval-19" class="cls-33" cx="589.6" cy="492.39" r="5.97"/><circle id="Oval-20" class="cls-33" cx="607.74" cy="289.57" r="5.97"/><circle id="Oval-21" class="cls-33" cx="639.31" cy="532.65" r="8.7"/><circle id="Oval-22" class="cls-33" cx="574.93" cy="275.9" r="8.7"/><circle id="Oval-23" class="cls-33" cx="690.76" cy="258" r="5.72"/><path id="Shape-106" class="cls-32" d="M662.18,661.65H566.73a15.34,15.34,0,0,0-15.41,15.25v.16h0a15.33,15.33,0,0,0,15.25,15.41h95.61a15.33,15.33,0,0,0,15.41-15.24v-.17h0a15.18,15.18,0,0,0-14.94-15.41Z"/><path id="Shape-107" class="cls-32" d="M631.11,645a16.66,16.66,0,0,1-33.31,0c0-9.2,16.65-40.51,16.65-40.51S631.11,635.8,631.11,645Z"/><path id="Shape-108" class="cls-33" d="M614.45,645.5v16.15"/><path id="Shape-109" class="cls-33" d="M791.92,406.89v14.17"/><path id="Shape-110" class="cls-33" d="M830.45,728.51h21.12"/><path id="Shape-111" class="cls-33" d="M813.05,728.51h7.7"/><path id="Shape-112" class="cls-33" d="M519,728.51H502.6"/></g><g id="light"><path id="Shape-113" class="cls-34" d="M609.73,421.05V528.18a14.16,14.16,0,0,1-14.15,14.17h0a14.16,14.16,0,0,1-14.16-14.16h0V421.05Z"/><rect id="Rectangle-path-21" class="cls-34" x="581.15" y="362.89" width="28.58" height="14.66"/><path id="Shape-114" class="cls-32" d="M566.23,376.81H816"/></g></g></g></g></g></g></g></svg>