<svg xmlns="http://www.w3.org/2000/svg" xmlns:xlink="http://www.w3.org/1999/xlink" viewBox="0 0 306 306">
  <defs>
    <style>
      .cls-1 {
        fill: rgba(94,93,93,0.06);
        stroke: #707070;
        stroke-width: 2px;
      }

      .cls-2 {
        fill: #ecf7ff;
      }

      .cls-3 {
        fill: url(#linear-gradient);
      }

      .cls-4 {
        fill: none;
        stroke-width: 4px;
        fill-rule: evenodd;
      }

      .cls-4, .cls-5 {
        stroke: #484d78;
        stroke-linecap: round;
        stroke-linejoin: round;
      }

      .cls-5 {
        fill: #6a77c6;
        stroke-width: 3px;
      }

      .cls-10, .cls-6 {
        opacity: 0.79;
      }

      .cls-7 {
        fill: #212121;
        opacity: 0.2;
      }

      .cls-10, .cls-8, .cls-9 {
        fill: #fff;
      }

      .cls-9 {
        opacity: 0.5;
      }

      .cls-11 {
        filter: url(#Ellipse_2);
      }
    </style>
    <filter id="Ellipse_2" x="0" y="0" width="306" height="306" filterUnits="userSpaceOnUse">
      <feOffset dx="5" dy="10" input="SourceAlpha"/>
      <feGaussianBlur stdDeviation="5" result="blur"/>
      <feFlood flood-opacity="0.078"/>
      <feComposite operator="in" in2="blur"/>
      <feComposite in="SourceGraphic"/>
    </filter>
    <linearGradient id="linear-gradient" x1="0.16" y1="0.394" x2="0.882" y2="0.583" gradientUnits="objectBoundingBox">
      <stop offset="0" stop-color="#73ffa6"/>
      <stop offset="1" stop-color="#3a8053"/>
    </linearGradient>
  </defs>
  <g id="Group_22" data-name="Group 22" transform="translate(-860 -1534)">
    <g class="cls-11" transform="matrix(1, 0, 0, 1, 860, 1534)">
      <circle id="Ellipse_2-2" data-name="Ellipse 2" class="cls-1" cx="137" cy="137" r="137" transform="translate(11 6)"/>
    </g>
    <g id="Group_14" data-name="Group 14" transform="translate(-280 -1087)">
      <g id="Group_12" data-name="Group 12" transform="translate(1255.304 2672.518)">
        <path id="Shape" class="cls-2" d="M124.747,116.145a8.513,8.513,0,0,1-6.019,14.484H75.465a8.7,8.7,0,0,1-6.019-2.445A8.513,8.513,0,0,1,75.465,113.7h43.264A8.7,8.7,0,0,1,124.747,116.145Z" transform="translate(-67 -113.7)"/>
        <path id="Shape-2" data-name="Shape" class="cls-3" d="M113.382,184.549v28.968c0,15.8-9.217,25.018-20.691,25.018A20.632,20.632,0,0,1,72,217.843V183.232C89.305,168.372,98.711,199.6,113.382,184.549Z" transform="translate(-62.595 -56.075)"/>
        <path id="Shape-3" data-name="Shape" class="cls-2" d="M113.382,142V243.336C98.711,263.6,89.305,221.548,72,241.562V142Z" transform="translate(-63.936 -116.324)"/>
        <rect id="Rectangle-path" class="cls-2" width="41.382" height="17.494" transform="translate(9.405 16.929)"/>
      </g>
      <path id="Shape-4" data-name="Shape" class="cls-4" d="M149,140.194V122.7h41.382v17.494" transform="translate(1115.709 2566.748)"/>
      <path id="Shape-5" data-name="Shape" class="cls-4" d="M190.382,142V261.377c0,18.1-9.217,28.659-20.691,28.659S149,279.478,149,266.334V142" transform="translate(1115.709 2564.941)"/>
      <path id="Shape-6" data-name="Shape" class="cls-4" d="M195.728,113.7H152.465A8.429,8.429,0,0,0,144,122.165h0a8.429,8.429,0,0,0,8.465,8.465h43.264a8.429,8.429,0,0,0,8.465-8.465h0A8.429,8.429,0,0,0,195.728,113.7Z" transform="translate(1111.304 2558.818)"/>
      <path id="Shape-7" data-name="Shape" class="cls-5" d="M155.1,194.5h.188" transform="translate(1126.447 2625.982)"/>
      <path id="Shape-8" data-name="Shape" class="cls-4" d="M149,183.232c17.305-14.86,26.71,16.365,41.382,1.317" transform="translate(1115.709 2615.102)"/>
      <g id="Group_13" data-name="Group 13" class="cls-6" transform="translate(1256.785 2674.964)">
        <rect id="Rectangle-path-2" data-name="Rectangle-path" class="cls-7" width="40.818" height="8.653" transform="translate(6.96 14.296)"/>
        <path id="Shape-9" data-name="Shape" class="cls-8" d="M84.924,112.029v-3.574h0a1.286,1.286,0,0,1,1.317-1.317h39.878l-3.762-3.762H88.686A5.566,5.566,0,0,1,90.567,103H80.974a5.566,5.566,0,0,0-1.881.376H71.569L69.5,107.138h4.326a1.6,1.6,0,0,1,1.5,1.317h0v3.574a5.669,5.669,0,0,0,5.831,5.455h9.781C87.558,117.3,84.924,115.039,84.924,112.029Z" transform="translate(-69.5 -103)"/>
        <path id="Shape-10" data-name="Shape" class="cls-9" d="M88.1,115.2H77v7.336c0,3.01,11.1,3.01,11.1,0Z" transform="translate(-62.892 -92.252)"/>
      </g>
      <path id="Shape-11" data-name="Shape" class="cls-10" d="M91.1.9H80V75.953a5.459,5.459,0,0,0,5.455,5.455h0a5.459,5.459,0,0,0,5.455-5.455V.9Z" transform="translate(1191.044 2722)"/>
    </g>
  </g>
</svg>
